<svg xmlns="http://www.w3.org/2000/svg" viewBox="0 0 1200 800" role="img" aria-labelledby="title desc"><title id="title">Cough care illustration</title><desc id="desc">A person managing a cough with tissues and a warm drink.</desc><rect width="1200" height="800" rx="40" fill="#f7fbf7"/><rect x="90" y="110" width="1020" height="580" rx="36" fill="#ffffff" stroke="#dce8df" stroke-width="6"/><rect x="220" y="240" width="280" height="240" rx="34" fill="#f4f7f2"/><circle cx="360" cy="320" r="74" fill="#ffe7d3"/><rect x="300" y="390" width="116" height="90" rx="24" fill="#145c46"/><rect x="620" y="238" width="250" height="246" rx="30" fill="#f8e6c6"/><path d="M690 308c26-38 82-38 108 0v86c0 42-34 76-76 76s-76-34-76-76v-86Z" fill="#ffffff"/><path d="M700 274c20-14 46-14 66 0" stroke="#145c46" stroke-width="10" stroke-linecap="round"/><path d="M560 548c84-34 176-34 260 0" stroke="#145c46" stroke-width="10" stroke-linecap="round"/><rect x="520" y="516" width="138" height="96" rx="24" fill="#eaf6ee"/><path d="M545 548c28-34 62-34 90 0" stroke="#145c46" stroke-width="8" stroke-linecap="round"/></svg>