<svg xmlns="http://www.w3.org/2000/svg" viewBox="0 0 1200 800" role="img" aria-labelledby="title desc"><title id="title">Fever rest illustration</title><desc id="desc">A calm scene of a person resting in bed with a thermometer and a cool cloth.</desc><rect width="1200" height="800" rx="40" fill="#f7fbf7"/><rect x="90" y="110" width="1020" height="580" rx="36" fill="#ffffff" stroke="#dce8df" stroke-width="6"/><rect x="220" y="240" width="310" height="220" rx="36" fill="#f5f7f2" stroke="#dce8df" stroke-width="6"/><rect x="260" y="280" width="232" height="140" rx="24" fill="#ffffff"/><circle cx="376" cy="350" r="74" fill="#ffe8db"/><rect x="358" y="392" width="34" height="26" rx="10" fill="#145c46"/><rect x="620" y="240" width="240" height="220" rx="32" fill="#f8e7c8"/><rect x="660" y="284" width="164" height="110" rx="22" fill="#fffdf8"/><path d="M726 302c18 0 32 13 32 31 0 13-8 25-20 29l-12 4v40h-20v-40l-12-4c-12-4-20-16-20-29 0-18 14-31 32-31Z" fill="#145c46"/><path d="M420 558c84-36 174-36 258 0" stroke="#145c46" stroke-width="10" stroke-linecap="round"/><rect x="510" y="520" width="120" height="98" rx="24" fill="#cfe4d7"/><path d="M548 546c10-12 22-18 38-18 18 0 30 9 38 22" stroke="#145c46" stroke-width="8" stroke-linecap="round"/></svg>