<svg xmlns="http://www.w3.org/2000/svg" viewBox="0 0 1200 800" role="img" aria-labelledby="title desc"><title id="title">Gentle wellbeing illustration</title><desc id="desc">A calm healthcare illustration with a person, a cross and a heart motif.</desc><rect width="1200" height="800" rx="40" fill="#f7fbf7"/><rect x="80" y="100" width="1040" height="600" rx="36" fill="#ffffff" stroke="#dce8df" stroke-width="6"/><circle cx="920" cy="220" r="110" fill="#e8f4eb"/><path d="M860 160c18-32 56-45 86-28 31 18 40 58 12 88-26 28-72 38-100 20-25-16-31-49-18-80Z" fill="#145c46" opacity="0.92"/><rect x="210" y="220" width="200" height="260" rx="34" fill="#f4c59b"/><circle cx="310" cy="280" r="70" fill="#ffddbf"/><rect x="252" y="350" width="116" height="110" rx="25" fill="#7f7a6f"/><rect x="240" y="430" width="140" height="110" rx="24" fill="#145c46"/><rect x="630" y="220" width="260" height="260" rx="26" fill="#f1f7ef" stroke="#cfe4d7" stroke-width="6"/><circle cx="760" cy="310" r="86" fill="#ffffff" stroke="#cfe4d7" stroke-width="6"/><path d="M760 250c15 0 27 12 27 27v25h25c15 0 27 12 27 27s-12 27-27 27h-25v25c0 15-12 27-27 27s-27-12-27-27v-25h-25c-15 0-27-12-27-27s12-27 27-27h25v-25c0-15 12-27 27-27Z" fill="#145c46"/><path d="M410 560c88-44 194-44 280 0" stroke="#145c46" stroke-width="10" stroke-linecap="round"/><path d="M620 558c58-26 122-26 182 0" stroke="#145c46" stroke-width="10" stroke-linecap="round"/></svg>