<svg xmlns="http://www.w3.org/2000/svg" viewBox="0 0 1200 800" role="img" aria-labelledby="title desc"><title id="title">Sore throat illustration</title><desc id="desc">A gentle home-care illustration showing a person with a warm drink and a scarf.</desc><rect width="1200" height="800" rx="40" fill="#f7fbf7"/><rect x="100" y="110" width="1000" height="580" rx="36" fill="#ffffff" stroke="#dce8df" stroke-width="6"/><circle cx="926" cy="220" r="92" fill="#e6f2e8"/><rect x="240" y="210" width="220" height="280" rx="40" fill="#f8d6b4"/><circle cx="350" cy="295" r="72" fill="#ffdcb8"/><rect x="278" y="356" width="144" height="100" rx="28" fill="#8e7b70"/><rect x="250" y="446" width="180" height="118" rx="28" fill="#145c46"/><rect x="620" y="240" width="220" height="180" rx="24" fill="#f5f7f2" stroke="#dce8df" stroke-width="6"/><rect x="655" y="278" width="150" height="108" rx="20" fill="#ffffff"/><path d="M700 310h60" stroke="#145c46" stroke-width="10" stroke-linecap="round"/><path d="M720 290v60" stroke="#145c46" stroke-width="10" stroke-linecap="round"/><path d="M520 520c70-35 164-40 250 0" stroke="#145c46" stroke-width="10" stroke-linecap="round"/><rect x="470" y="520" width="180" height="104" rx="24" fill="#f6c26b"/><path d="M510 566c32-28 70-43 110-43 40 0 80 15 112 43" fill="none" stroke="#8b4f02" stroke-width="10" stroke-linecap="round"/><rect x="502" y="562" width="152" height="44" rx="22" fill="#ffffff" opacity="0.82"/></svg>